<svg width="24" height="24" viewBox="0 0 24 24" fill="none" xmlns="http://www.w3.org/2000/svg">
<path d="M6.2929 6.29289C5.90237 6.68342 5.90237 7.31658 6.2929 7.70711L10.5355 11.9498L6.29289 16.1924C5.90237 16.5829 5.90237 17.2161 6.29289 17.6066C6.68342 17.9972 7.31658 17.9972 7.70711 17.6066L11.9498 13.364L16.1924 17.6066C16.5829 17.9971 17.2161 17.9971 17.6066 17.6066C17.9971 17.2161 17.9971 16.5829 17.6066 16.1924L13.364 11.9498L17.6066 7.70714C17.9971 7.31661 17.9971 6.68345 17.6066 6.29292C17.2161 5.9024 16.5829 5.9024 16.1924 6.29292L11.9498 10.5355L7.70711 6.29289C7.31659 5.90237 6.68342 5.90237 6.2929 6.29289Z" fill="#DC3545"/>
</svg>
