<svg width="24" height="24" viewBox="0 0 24 24" fill="none" xmlns="http://www.w3.org/2000/svg">
<path d="M11.7925 13.9183C11.3015 13.9183 10.9058 14.314 10.9058 14.805V16.3429C10.9058 16.8339 11.3015 17.2296 11.7925 17.2296C12.2835 17.2296 12.6792 16.8339 12.6792 16.3429V14.805C12.6792 14.3182 12.2838 13.9183 11.7925 13.9183Z" fill="#ADB5BD"/>
<path fill-rule="evenodd" clip-rule="evenodd" d="M11.7925 2.00024C9.19225 2.00024 7.08237 4.11407 7.08237 6.7104V9.09151C5.90891 9.25784 5 10.2704 5 11.4926V18.5757C5 19.9143 6.08996 21.0002 7.42453 21.0002H16.1605C17.4991 21.0002 18.5851 19.9142 18.5851 18.5757V11.4926C18.5851 10.2705 17.6798 9.25769 16.5027 9.09147V6.7104C16.5027 4.11407 14.3928 2.00024 11.7925 2.00024ZM8.85582 6.7104C8.85582 5.09219 10.1743 3.77369 11.7925 3.77369C13.4107 3.77369 14.7292 5.09219 14.7292 6.7104V9.0642H8.85582V6.7104ZM6.77345 11.4926C6.77345 11.1322 7.06418 10.8415 7.42453 10.8415H16.1605C16.5209 10.8415 16.8116 11.1322 16.8116 11.4926V18.5757C16.8116 18.9326 16.5205 19.2268 16.1605 19.2268H7.42453C7.06418 19.2268 6.77345 18.9361 6.77345 18.5757V11.4926Z" fill="#ADB5BD"/>
</svg>
