<svg width="24" height="24" viewBox="0 0 24 24" fill="none" xmlns="http://www.w3.org/2000/svg">
<path fill-rule="evenodd" clip-rule="evenodd" d="M14.1845 18.9869H4.74758V16.0161C4.74969 14.5691 5.92194 13.3968 7.36894 13.3947H10.9794C13.8496 13.4066 16.1865 11.0897 16.1984 8.21912C16.2102 5.34854 13.8933 3.0124 11.0228 3.00017C8.15222 2.98794 5.81605 5.30554 5.80382 8.17577C5.79858 9.45465 6.26482 10.6905 7.11381 11.6471C4.80176 11.7842 2.99789 13.7002 3 16.0161V19.8607C3 20.3434 3.39112 20.7345 3.87378 20.7345H14.1845C14.6672 20.7345 15.0582 20.3434 15.0582 19.8607C15.0582 19.3781 14.6672 18.9869 14.1845 18.9869ZM10.9794 4.79665C12.8724 4.85083 14.3631 6.42889 14.3089 8.32184C14.2582 10.1009 12.8542 11.5454 11.0773 11.6471H10.8047C8.91483 11.5283 7.47901 9.8999 7.59784 8.01008C7.71041 6.21883 9.18501 4.81764 10.9794 4.79665Z" fill="#ADB5BD"/>
<path d="M16.631 16.8898H14.8834C14.4007 16.8898 14.0096 16.4986 14.0096 16.016C14.0096 15.5333 14.4008 15.1422 14.8834 15.1422H16.631V13.3946C16.631 12.912 17.0221 12.5209 17.5048 12.5209C17.9874 12.5209 18.3785 12.912 18.3785 13.3946V15.1422H20.1261C20.6088 15.1422 20.9999 15.5333 20.9999 16.016C20.9999 16.4986 20.6088 16.8898 20.1262 16.8898H18.3785V18.6374C18.3785 19.1201 17.9874 19.5112 17.5048 19.5112C17.0221 19.5112 16.631 19.1201 16.631 18.6374V16.8898Z" fill="#ADB5BD"/>
</svg>
