<svg width="24" height="24" viewBox="0 0 24 24" fill="none" xmlns="http://www.w3.org/2000/svg">
<path d="M14.3092 11.7559C14.3092 13.0315 13.2752 14.0656 11.9996 14.0656C10.724 14.0656 9.68996 13.0315 9.68996 11.7559C9.68996 10.4803 10.724 9.44629 11.9996 9.44629C13.2752 9.44629 14.3092 10.4803 14.3092 11.7559Z" fill="white"/>
<path fill-rule="evenodd" clip-rule="evenodd" d="M11.6076 18.4984H11.9283C15.0292 18.4984 18.0267 16.4062 20.846 12.2539C21.0513 11.9516 21.0513 11.5546 20.846 11.2523C17.934 6.96098 14.8189 4.85455 11.6111 5.0078C6.5178 5.24658 3.24586 11.0741 3.1104 11.3236C2.9632 11.5909 2.9632 11.9153 3.1104 12.1826C3.24586 12.4392 6.51783 18.2632 11.6076 18.4984ZM11.7038 16.7198C8.30708 16.5666 5.7337 13.0059 4.93175 11.7549C5.7337 10.5003 8.29281 6.94675 11.6967 6.78991C14.1346 6.67583 16.5975 8.34748 19.0283 11.7549C16.6011 15.1623 14.1417 16.8339 11.7038 16.7198Z" fill="white"/>
</svg>
