<svg width="24" height="24" viewBox="0 0 24 24" fill="none" xmlns="http://www.w3.org/2000/svg">
<path d="M10.0961 15.3271C9.61809 15.3271 9.23077 14.9397 9.23077 14.4617V11.0001C9.23077 10.5221 9.61813 10.1348 10.0961 10.1348C10.5742 10.1348 10.9615 10.5221 10.9615 11.0001V14.4617C10.9616 14.9397 10.5742 15.3271 10.0961 15.3271Z" fill="#212529"/>
<path d="M13.0385 14.4617C13.0385 14.9397 13.4258 15.3271 13.9038 15.3271C14.3818 15.3271 14.7692 14.9397 14.7692 14.4617V11.0001C14.7692 10.5221 14.3819 10.1348 13.9038 10.1348C13.4258 10.1348 13.0385 10.5221 13.0385 11.0001V14.4617Z" fill="#212529"/>
<path fill-rule="evenodd" clip-rule="evenodd" d="M18.9231 5.4618H15.4615C15.4615 3.54997 13.9118 2.00024 12 2.00024C10.0882 2.00024 8.53844 3.54997 8.53844 5.4618H5.07692C4.59886 5.4618 4.21155 5.84915 4.21155 6.32717C4.21155 6.80519 4.5989 7.19254 5.07692 7.19254H5.42307V17.7502C5.42514 18.9922 6.43107 19.9982 7.67307 20.0002H16.3269C17.5689 19.9982 18.5748 18.9922 18.5769 17.7502V7.19254H18.9231C19.4011 7.19254 19.7884 6.80519 19.7884 6.32717C19.7884 5.84915 19.4011 5.4618 18.9231 5.4618ZM12 3.73102C12.9557 3.73102 13.7308 4.50608 13.7308 5.4618H10.2692C10.2692 4.50604 11.0443 3.73102 12 3.73102ZM16.8461 17.7502C16.8461 18.0369 16.6135 18.2695 16.3269 18.2695H7.67307C7.38644 18.2695 7.15384 18.0368 7.15384 17.7502V7.19254H16.8461V17.7502Z" fill="#212529"/>
</svg>
