<svg width="24" height="24" viewBox="0 0 24 24" fill="none" xmlns="http://www.w3.org/2000/svg">
<path d="M12.6497 5.26344C10.6029 3.24403 7.29236 3.24445 5.26521 5.27114L5.264 5.27236C3.24448 7.3193 3.24466 10.6296 5.26856 12.6535L6.59639 13.9813C6.77692 14.1621 7.01428 14.2525 7.25071 14.2525C7.4869 14.2525 7.72415 14.1621 7.90481 13.9813C8.2663 13.6201 8.26624 13.034 7.90482 12.6728L6.57691 11.3449C5.27276 10.0407 5.27209 7.89941 6.57749 6.57574C7.88193 5.27237 10.0234 5.27256 11.3469 6.57752L12.6737 7.90429C13.0351 8.26573 13.6206 8.26573 13.982 7.9043C14.3434 7.54308 14.3434 6.95708 13.9819 6.5959L12.6509 5.26464L12.6497 5.26344Z" fill="#FF4D20"/>
<path d="M11.1003 18.4866C13.1471 20.506 16.4576 20.5056 18.4848 18.4789L18.486 18.4776C20.5055 16.4307 20.5053 13.1204 18.4814 11.0965L17.1536 9.76872C16.9731 9.58789 16.7357 9.49751 16.4993 9.49751C16.2631 9.49751 16.0258 9.58788 15.8452 9.76872C15.4837 10.1299 15.4838 10.716 15.8452 11.0772L17.1731 12.4051C18.4772 13.7093 18.4779 15.8506 17.1725 17.1743C15.8681 18.4776 13.7266 18.4774 12.4031 17.1725L11.0763 15.8457C10.7149 15.4843 10.1294 15.4843 9.76799 15.8457C9.40659 16.2069 9.40661 16.7929 9.76813 17.1541L11.0991 18.4854L11.1003 18.4866Z" fill="#FF4D20"/>
<path d="M10.9434 9.63436C10.5822 9.27291 9.99628 9.27293 9.63507 9.63436C9.27365 9.99555 9.27367 10.5815 9.63507 10.9427L13.0563 14.3639C13.2369 14.5445 13.4739 14.6349 13.7104 14.6349C13.947 14.6349 14.184 14.5444 14.3646 14.3639C14.726 14.0027 14.7259 13.4167 14.3645 13.0555L10.9434 9.63436Z" fill="#FF4D20"/>
</svg>
