<svg width="24" height="24" viewBox="0 0 24 24" fill="none" xmlns="http://www.w3.org/2000/svg">
<path d="M18.5346 9.7379C18.9976 10.0687 19.6491 9.77231 19.7009 9.20325L19.9969 5.95667C20.034 5.54992 19.7342 5.19013 19.3275 5.15304C18.9203 5.11603 18.561 5.41603 18.5239 5.8224L18.4765 6.34282C17.0585 4.32716 14.7376 3 12.0682 3C9.05285 3 6.39636 4.72107 5.07798 7.30257C4.8922 7.66632 5.03651 8.11179 5.40025 8.29756C5.76401 8.48329 6.20944 8.33906 6.39522 7.9753C7.47142 5.86802 9.63182 4.47909 12.0682 4.47909C14.0166 4.47909 15.7987 5.36919 16.9824 6.81168L16.7589 6.65208C16.4265 6.41473 15.9647 6.49172 15.7273 6.82407C15.4899 7.15645 15.5669 7.6183 15.8993 7.8557L18.5346 9.7379Z" fill="#0D6EFD"/>
<path d="M5.46537 11.9959C5.00239 11.6651 4.35086 11.9615 4.29905 12.5305L4.0031 15.7771C3.96601 16.1839 4.26576 16.5436 4.67247 16.5807C5.07969 16.6177 5.43901 16.3177 5.47606 15.9114L5.5235 15.3909C6.94146 17.4066 9.26236 18.7338 11.9318 18.7338C14.9472 18.7338 17.6036 17.0127 18.922 14.4312C19.1078 14.0674 18.9635 13.622 18.5998 13.4362C18.236 13.2505 17.7906 13.3947 17.6048 13.7585C16.5286 15.8658 14.3682 17.2547 11.9318 17.2547C9.98341 17.2547 8.20131 16.3646 7.01764 14.9221L7.24111 15.0817C7.57349 15.319 8.03534 15.242 8.27274 14.9097C8.51009 14.5773 8.4331 14.1155 8.10075 13.8781L5.46537 11.9959Z" fill="#0D6EFD"/>
<path fill-rule="evenodd" clip-rule="evenodd" d="M4.98892 7.25709C6.32375 4.64338 9.0139 2.9 12.0682 2.9C14.6755 2.9 16.9544 4.15023 18.401 6.06935L18.4244 5.81332C18.4664 5.35201 18.8743 5.01144 19.3366 5.05345C19.7983 5.09555 20.1386 5.50398 20.0965 5.96575L19.8005 9.21233C19.7417 9.85859 19.0021 10.1948 18.4765 9.81927L15.8411 7.93707C15.4638 7.66758 15.3764 7.14328 15.6459 6.76596C15.8466 6.48499 16.1886 6.36477 16.506 6.433C15.3576 5.27544 13.7779 4.57909 12.0682 4.57909C9.67068 4.57909 7.54399 5.9458 6.48428 8.02079C6.27338 8.43373 5.76771 8.59746 5.35477 8.38663C4.94185 8.17574 4.77802 7.67003 4.98892 7.25709ZM7.49402 15.3008C8.64237 16.4583 10.2221 17.1547 11.9318 17.1547C14.3293 17.1547 16.456 15.788 17.5157 13.713C17.7266 13.3 18.2323 13.1363 18.6452 13.3471C19.0581 13.558 19.222 14.0637 19.0111 14.4767C17.6762 17.0904 14.9861 18.8338 11.9318 18.8338C9.32453 18.8338 7.04565 17.5835 5.59899 15.6644L5.57565 15.9204C5.53359 16.3818 5.12568 16.7223 4.66342 16.6803C4.20172 16.6382 3.86141 16.2298 3.90352 15.768L4.19946 12.5214C4.19947 12.5214 4.19946 12.5215 4.19946 12.5214C4.25831 11.8752 4.9979 11.539 5.5235 11.9145L8.15887 13.7967C8.53616 14.0662 8.62356 14.5905 8.35412 14.9678C8.15342 15.2488 7.8114 15.369 7.49402 15.3008Z" fill="#0D6EFD"/>
</svg>
