<svg width="149" height="24" viewBox="0 0 149 24" fill="none" xmlns="http://www.w3.org/2000/svg">
<path fill-rule="evenodd" clip-rule="evenodd" d="M15.1927 20.7343C15.19 20.7344 15.1872 20.7344 15.1845 20.7344H4.87378C4.39112 20.7344 4 20.3433 4 19.8606V16.0159C3.99789 13.7001 5.80176 11.784 8.11381 11.647C7.26482 10.6904 6.79858 9.45452 6.80382 8.17565C6.81605 5.30542 9.15222 2.98781 12.0228 3.00005C14.8933 3.01228 17.2102 5.34841 17.1984 8.21899C17.1929 9.53511 16.6987 10.7348 15.8885 11.6471C18.1994 11.7853 20.0021 13.7008 20 16.0159V19.8606C20 20.3433 19.6089 20.7343 19.1262 20.7343H15.1927ZM8.80749 18.9868H5.74759V16.0159C5.74969 14.569 6.92195 13.3967 8.36894 13.3946H11.9794C12.0994 13.3951 12.2184 13.3915 12.3364 13.384C13.7685 13.3909 15.4566 13.3946 15.6311 13.3946C17.0781 13.3967 18.2503 14.5689 18.2524 16.0159V18.9868H8.81553C8.81285 18.9868 8.81017 18.9868 8.80749 18.9868ZM15.3089 8.32172C15.3631 6.42877 13.8724 4.85071 11.9794 4.79653C10.185 4.81752 8.71041 6.21871 8.59784 8.00995C8.47902 9.89978 9.91483 11.5282 11.8047 11.647H12.0773C13.8542 11.5453 15.2582 10.1008 15.3089 8.32172Z" fill="#ADB5BD"/>
<path d="M41.5753 10.1293C41.2273 7.9517 39.522 6.67898 37.3693 6.67898C34.7344 6.67898 32.7905 8.6527 32.7905 11.9091C32.7905 15.1655 34.7244 17.1392 37.3693 17.1392C39.6065 17.1392 41.2422 15.7372 41.5753 13.7237L40.0241 13.7188C39.7607 15.0213 38.6669 15.7372 37.3793 15.7372C35.6342 15.7372 34.3168 14.3999 34.3168 11.9091C34.3168 9.43821 35.6293 8.08097 37.3842 8.08097C38.6818 8.08097 39.7706 8.81179 40.0241 10.1293H41.5753ZM44.7807 12.4659C44.7807 11.2479 45.5513 10.5518 46.6103 10.5518C47.6344 10.5518 48.2459 11.2031 48.2459 12.3217V17H49.7324V12.1428C49.7324 10.2386 48.6884 9.2642 47.1174 9.2642C45.9292 9.2642 45.2132 9.78125 44.8553 10.6065H44.7608V6.81818H43.2942V17H44.7807V12.4659ZM51.7161 17H53.2026V12.3366C53.2026 11.3374 53.9732 10.6165 55.0272 10.6165C55.3354 10.6165 55.6834 10.6712 55.8027 10.706V9.28409C55.6536 9.2642 55.3603 9.24929 55.1713 9.24929C54.2765 9.24929 53.5108 9.75639 53.2324 10.5767H53.1529V9.36364H51.7161V17ZM57.0891 17H58.5756V9.36364H57.0891V17ZM57.8398 8.18537C58.3519 8.18537 58.7795 7.78764 58.7795 7.30043C58.7795 6.81321 58.3519 6.41051 57.8398 6.41051C57.3228 6.41051 56.9002 6.81321 56.9002 7.30043C56.9002 7.78764 57.3228 8.18537 57.8398 8.18537ZM66.2978 11.228C65.9895 10.0398 65.0598 9.2642 63.4093 9.2642C61.6841 9.2642 60.4611 10.174 60.4611 11.5263C60.4611 12.6101 61.1174 13.331 62.5492 13.6491L63.8418 13.9325C64.5776 14.0966 64.9206 14.4247 64.9206 14.902C64.9206 15.4936 64.2892 15.956 63.3148 15.956C62.4249 15.956 61.8532 15.5732 61.6742 14.8224L60.2374 15.0412C60.486 16.3935 61.6096 17.1541 63.3248 17.1541C65.1692 17.1541 66.4469 16.1747 66.4469 14.7926C66.4469 13.7138 65.7608 13.0476 64.3588 12.7244L63.1458 12.446C62.3056 12.2472 61.9426 11.9638 61.9476 11.4467C61.9426 10.8601 62.579 10.4425 63.4242 10.4425C64.3489 10.4425 64.7765 10.9545 64.9505 11.4666L66.2978 11.228ZM71.646 9.36364H70.0799V7.53409H68.5934V9.36364H67.4748V10.5568H68.5934V15.0661C68.5884 16.4531 69.6474 17.1243 70.8207 17.0994C71.293 17.0945 71.6112 17.005 71.7852 16.9403L71.5167 15.7124C71.4173 15.7322 71.2333 15.777 70.9947 15.777C70.5124 15.777 70.0799 15.6179 70.0799 14.7578V10.5568H71.646V9.36364ZM76.4249 17.1541C78.5776 17.1541 79.9846 15.5781 79.9846 13.2166C79.9846 10.8402 78.5776 9.2642 76.4249 9.2642C74.2722 9.2642 72.8652 10.8402 72.8652 13.2166C72.8652 15.5781 74.2722 17.1541 76.4249 17.1541ZM76.4299 15.9062C75.0229 15.9062 74.3667 14.6783 74.3667 13.2116C74.3667 11.75 75.0229 10.5071 76.4299 10.5071C77.8269 10.5071 78.4831 11.75 78.4831 13.2116C78.4831 14.6783 77.8269 15.9062 76.4299 15.9062ZM87.3661 11.228C87.0579 10.0398 86.1282 9.2642 84.4776 9.2642C82.7525 9.2642 81.5295 10.174 81.5295 11.5263C81.5295 12.6101 82.1857 13.331 83.6175 13.6491L84.9102 13.9325C85.646 14.0966 85.989 14.4247 85.989 14.902C85.989 15.4936 85.3576 15.956 84.3832 15.956C83.4933 15.956 82.9215 15.5732 82.7425 14.8224L81.3058 15.0412C81.5543 16.3935 82.6779 17.1541 84.3931 17.1541C86.2376 17.1541 87.5153 16.1747 87.5153 14.7926C87.5153 13.7138 86.8292 13.0476 85.4272 12.7244L84.2141 12.446C83.3739 12.2472 83.011 11.9638 83.016 11.4467C83.011 10.8601 83.6474 10.4425 84.4925 10.4425C85.4173 10.4425 85.8448 10.9545 86.0188 11.4666L87.3661 11.228ZM93.8342 17L94.7688 14.3054H98.7461L99.6758 17H101.306L97.6424 6.81818H95.8675L92.2035 17H93.8342ZM95.2163 13.0128L96.7177 8.66761H96.7972L98.2987 13.0128H95.2163ZM105.744 9.36364H104.178V7.53409H102.691V9.36364H101.572V10.5568H102.691V15.0661C102.686 16.4531 103.745 17.1243 104.918 17.0994C105.391 17.0945 105.709 17.005 105.883 16.9403L105.614 15.7124C105.515 15.7322 105.331 15.777 105.092 15.777C104.61 15.777 104.178 15.6179 104.178 14.7578V10.5568H105.744V9.36364ZM107.229 17H113.359V15.7074H109.242V15.6378L113.22 10.4474V9.36364H107.363V10.6562H111.365V10.7259L107.229 15.9808V17ZM115.113 17H116.599V9.36364H115.113V17ZM115.863 8.18537C116.375 8.18537 116.803 7.78764 116.803 7.30043C116.803 6.81321 116.375 6.41051 115.863 6.41051C115.346 6.41051 114.924 6.81321 114.924 7.30043C114.924 7.78764 115.346 8.18537 115.863 8.18537ZM120.085 12.4659C120.085 11.2479 120.831 10.5518 121.865 10.5518C122.874 10.5518 123.486 11.2131 123.486 12.3217V17H124.972V12.1428C124.972 10.2536 123.933 9.2642 122.372 9.2642C121.224 9.2642 120.473 9.79616 120.12 10.6065H120.026V9.36364H118.599V17H120.085V12.4659ZM127.632 19.8636C128.86 19.8636 129.636 19.2223 130.078 18.0192L133.235 9.37855L131.629 9.36364L129.695 15.2898H129.616L127.682 9.36364H126.091L128.885 17.0994L128.701 17.6065C128.323 18.6207 127.791 18.7053 126.976 18.4815L126.618 19.6996C126.797 19.7791 127.185 19.8636 127.632 19.8636ZM136.626 17.169C137.889 17.169 138.6 16.5277 138.883 15.956H138.943V17H140.394V11.929C140.394 9.70668 138.644 9.2642 137.431 9.2642C136.049 9.2642 134.776 9.82102 134.279 11.2131L135.676 11.5312C135.895 10.9893 136.452 10.4673 137.451 10.4673C138.411 10.4673 138.903 10.9695 138.903 11.8345V11.8693C138.903 12.4112 138.346 12.4013 136.974 12.5604C135.527 12.7294 134.046 13.1072 134.046 14.8423C134.046 16.3438 135.174 17.169 136.626 17.169ZM136.949 15.9759C136.109 15.9759 135.502 15.598 135.502 14.8622C135.502 14.0668 136.208 13.7834 137.068 13.669C137.551 13.6044 138.694 13.4751 138.908 13.2614V14.2457C138.908 15.1506 138.187 15.9759 136.949 15.9759ZM143.861 12.4659C143.861 11.2479 144.607 10.5518 145.641 10.5518C146.65 10.5518 147.261 11.2131 147.261 12.3217V17H148.748V12.1428C148.748 10.2536 147.709 9.2642 146.148 9.2642C144.999 9.2642 144.249 9.79616 143.896 10.6065H143.801V9.36364H142.374V17H143.861V12.4659Z" fill="#6C757D"/>
</svg>
