<svg width="24" height="24" viewBox="0 0 24 24" fill="none" xmlns="http://www.w3.org/2000/svg">
<path d="M13.0387 2.26193L16.0404 5.41894V5.41543C16.3769 5.76857 16.3635 6.32723 16.0103 6.66377C15.6572 7.00032 15.0985 6.98689 14.762 6.63375L13.2824 5.07994V12.0297C13.2824 12.5173 12.8872 12.9125 12.3995 12.9125C11.9119 12.9125 11.5167 12.5173 11.5167 12.0297V5.07994L10.0371 6.63727C9.70053 6.9904 9.14187 7.00383 8.78873 6.66729C8.43559 6.33074 8.42216 5.77208 8.75871 5.41894L11.7603 2.26193C12.1149 1.91269 12.6841 1.91269 13.0387 2.26193Z" fill="white"/>
<path d="M5 12.6067C4.9968 16.6869 8.30183 19.9969 12.382 20C13.5939 20.0011 14.7879 19.7034 15.8575 19.1341C19.4592 17.2169 20.8247 12.743 18.9076 9.14139C18.8984 9.12339 18.8892 9.10571 18.8789 9.08806C18.6353 8.66605 18.0954 8.52128 17.673 8.7653C17.251 9.00896 17.1062 9.54888 17.3502 9.97125C18.2285 11.6222 18.2285 13.6015 17.3502 15.2521C15.8922 17.9931 12.4876 19.0331 9.74651 17.575C7.00546 16.1169 5.96545 12.7123 7.42357 9.97128C7.62768 9.55458 7.47405 9.05066 7.07218 8.81863C6.65021 8.57461 6.11025 8.71903 5.86624 9.14139C5.2984 10.2082 5.00106 11.3979 5 12.6067Z" fill="white"/>
</svg>
