<svg width="24" height="24" viewBox="0 0 24 24" fill="none" xmlns="http://www.w3.org/2000/svg">
<path d="M16.0404 8.41894L13.0388 5.26193C12.6842 4.91269 12.1149 4.91269 11.7604 5.26193L8.75877 8.41894C8.42222 8.77208 8.43565 9.33074 8.78879 9.66729C9.14193 10.0038 9.70059 9.9904 10.0371 9.63727L11.5168 8.07994V15.0297C11.5168 15.5173 11.9119 15.9125 12.3996 15.9125C12.8873 15.9125 13.2824 15.5173 13.2824 15.0297V8.07994L14.7621 9.63375C15.0986 9.98689 15.6573 10.0003 16.0104 9.66377C16.3635 9.32723 16.377 8.76857 16.0404 8.41543V8.41894Z" fill="#0D6EFD"/>
<path d="M5.9 15C5.40294 15 5 15.4029 5 15.9V19.8H19.9L19.9 15.9C19.9 15.4029 19.497 15 19 15C18.5029 15 18.1 15.4029 18.1 15.9V18H6.8V15.9C6.8 15.4029 6.39706 15 5.9 15Z" fill="#0D6EFD"/>
</svg>
