<svg width="24" height="24" viewBox="0 0 24 24" fill="none" xmlns="http://www.w3.org/2000/svg">
<path d="M7.15382 15.1155H11.6538C12.1318 15.1155 12.5192 14.7281 12.5192 14.2501C12.5192 13.7721 12.1318 13.3848 11.6538 13.3848H7.15382C6.6758 13.3848 6.28845 13.7721 6.28845 14.2501C6.28845 14.7281 6.67577 15.1155 7.15382 15.1155Z" fill="white"/>
<path fill-rule="evenodd" clip-rule="evenodd" d="M18.5353 7.92927C19.0091 7.58657 19.6357 7.53985 20.1553 7.80813C20.6794 8.07605 21.0065 8.61781 20.9999 9.2066V14.745C21.0013 15.0915 20.887 15.4287 20.6752 15.7032C20.1494 16.3841 19.1711 16.5101 18.4903 15.9843L15.8076 13.9073V16.1296C15.8055 17.2892 14.8661 18.2287 13.7065 18.2308H5.10114C3.94155 18.2287 3.00207 17.2893 3 16.1296V7.87046C3.00207 6.71084 3.94155 5.7714 5.10114 5.76929H13.7065C14.866 5.77136 15.8055 6.7108 15.8076 7.87042V9.88504L18.5353 7.92927ZM13.7065 16.5C13.9111 16.5 14.0769 16.3342 14.0769 16.1296L14.0768 7.87046C14.0768 7.66589 13.911 7.50009 13.7065 7.50009H5.10114C4.89656 7.50009 4.73077 7.66589 4.73077 7.87046V16.1296C4.73077 16.3342 4.89656 16.5 5.10114 16.5H13.7065ZM16.3995 12.1835L19.2691 14.3989V9.53197L16.3995 11.5916C16.3718 11.6127 16.3469 11.6373 16.3261 11.665C16.2032 11.8284 16.2361 12.0606 16.3995 12.1835Z" fill="white"/>
</svg>
